<?xml version="1.0" encoding="UTF-8" standalone="no"?>
<svg
   width="512"
   height="512"
   shape-rendering="geometricPrecision"
   text-rendering="geometricPrecision"
   image-rendering="optimizeQuality"
   fill-rule="evenodd"
   clip-rule="evenodd"
   viewBox="0 0 5120 5120"
   version="1.1"
   id="svg4"
   sodipodi:docname="github-icon.svg"
   inkscape:version="1.1.2 (b8e25be833, 2022-02-05)"
   xmlns:inkscape="http://www.inkscape.org/namespaces/inkscape"
   xmlns:sodipodi="http://sodipodi.sourceforge.net/DTD/sodipodi-0.dtd"
   xmlns="http://www.w3.org/2000/svg"
   xmlns:svg="http://www.w3.org/2000/svg">
  <defs
     id="defs8" />
  <sodipodi:namedview
     id="namedview6"
     pagecolor="#ffffff"
     bordercolor="#666666"
     borderopacity="1.0"
     inkscape:pageshadow="2"
     inkscape:pageopacity="0.0"
     inkscape:pagecheckerboard="0"
     showgrid="false"
     inkscape:zoom="0.53999756"
     inkscape:cx="363.89053"
     inkscape:cy="316.6681"
     inkscape:window-width="1920"
     inkscape:window-height="986"
     inkscape:window-x="-11"
     inkscape:window-y="-11"
     inkscape:window-maximized="1"
     inkscape:current-layer="svg4" />
  <path
     d="M 2559.6721,0.91038077 C 1146.6118,0.91038077 0.67285213,1175.8362 0.67285213,2625.0718 c 0,1159.5328 733.16481787,2142.8624 1749.98934787,2490.0202 127.9868,24.3073 175.0261,-57.0532 175.0261,-126.4077 0,-62.5724 -2.5511,-269.2745 -3.5907,-488.3763 -712.0043,158.7601 -862.0952,-309.7619 -862.0952,-309.7619 -116.3749,-303.3737 -284.1316,-384.0534 -284.1316,-384.0534 -232.17392,-163.0246 17.66575,-159.4408 17.66575,-159.4408 256.91715,18.4109 392.18135,270.2504 392.18135,270.2504 228.3992,401.2013 598.8523,285.0612 744.7847,218.1258 23.0478,-169.6014 89.1685,-285.4465 162.4626,-351.0204 -568.4391,-66.1561 -1165.96381,-291.2609 -1165.96381,-1296.8804 0,-286.4224 100.12451,-520.6302 263.62681,-704.2879 -26.6306,-66.2464 -114.2877,-333.0033 24.6553,-694.3977 0,0 214.8839,-70.6093 703.9831,268.9874 204.0239,-58.0209 422.8745,-87.2732 640.2217,-88.241 217.5231,0.9678 436.7576,30.1217 641.0693,88.241 488.4353,-339.3999 703.1275,-268.9874 703.1275,-268.9874 139.1348,361.4929 51.8616,628.4384 25.223,694.4059 164.07,183.6495 263.3469,417.8573 263.3469,704.2797 0,1007.9404 -598.8522,1229.5517 -1168.5229,1294.5514 91.8156,81.3605 173.8026,241.0882 173.8026,485.7602 0,350.9303 -2.9269,633.7607 -2.9269,720.0664 0,69.8383 46.0957,151.494 175.8738,125.9156 C 4386.7303,4766.4827 5118.9594,3783.0382 5118.9594,2624.1943 5118.9594,1175.1473 3973.2125,0.02469028 2559.8641,0.02469028 l -0.1839,0.87748959 z"
     id="path2"
     style="stroke-width:8.09837" />
</svg>
