<?xml version="1.0" encoding="UTF-8" standalone="no"?>
<!-- Generator: Adobe Illustrator 16.0.0, SVG Export Plug-In . SVG Version: 6.00 Build 0)  -->

<svg
   version="1.1"
   id="Capa_1"
   x="0px"
   y="0px"
   width="512"
   height="512"
   viewBox="0 0 512 512"
   xml:space="preserve"
   sodipodi:docname="linkedin.svg"
   inkscape:version="1.1.2 (b8e25be833, 2022-02-05)"
   xmlns:inkscape="http://www.inkscape.org/namespaces/inkscape"
   xmlns:sodipodi="http://sodipodi.sourceforge.net/DTD/sodipodi-0.dtd"
   xmlns="http://www.w3.org/2000/svg"
   xmlns:svg="http://www.w3.org/2000/svg"><defs
   id="defs39" /><sodipodi:namedview
   id="namedview37"
   pagecolor="#ffffff"
   bordercolor="#666666"
   borderopacity="1.0"
   inkscape:pageshadow="2"
   inkscape:pageopacity="0.0"
   inkscape:pagecheckerboard="0"
   showgrid="false"
   inkscape:zoom="5.6568543"
   inkscape:cx="434.95906"
   inkscape:cy="242.18407"
   inkscape:window-width="1920"
   inkscape:window-height="986"
   inkscape:window-x="-11"
   inkscape:window-y="-11"
   inkscape:window-maximized="1"
   inkscape:current-layer="Capa_1" />
<g
   id="g4"
   transform="matrix(5.2369576,0,0,5.2320855,0.10159431,0.53239744)">
	<path
   d="M 48.875,0 C 21.882,0 0,21.882 0,48.875 0,75.868 21.882,97.75 48.875,97.75 75.868,97.75 97.75,75.868 97.75,48.875 97.75,21.882 75.868,0 48.875,0 Z M 30.562,81.966 H 16.822 V 37.758 h 13.74 V 81.966 Z M 23.695,31.715 c -4.404,0 -7.969,-3.57 -7.969,-7.968 10e-4,-4.394 3.565,-7.964 7.969,-7.964 4.392,0 7.962,3.57 7.962,7.964 0,4.399 -3.571,7.968 -7.962,7.968 z M 82.023,81.966 H 68.294 V 60.467 c 0,-5.127 -0.095,-11.721 -7.142,-11.721 -7.146,0 -8.245,5.584 -8.245,11.35 V 81.965 H 39.179 V 37.758 h 13.178 v 6.041 h 0.185 c 1.835,-3.476 6.315,-7.14 13,-7.14 13.913,0 16.481,9.156 16.481,21.059 z"
   id="path2" />
</g>
<g
   id="g6">
</g>
<g
   id="g8">
</g>
<g
   id="g10">
</g>
<g
   id="g12">
</g>
<g
   id="g14">
</g>
<g
   id="g16">
</g>
<g
   id="g18">
</g>
<g
   id="g20">
</g>
<g
   id="g22">
</g>
<g
   id="g24">
</g>
<g
   id="g26">
</g>
<g
   id="g28">
</g>
<g
   id="g30">
</g>
<g
   id="g32">
</g>
<g
   id="g34">
</g>
</svg>
