<?xml version="1.0" encoding="UTF-8" standalone="no"?>
<!-- Created with Inkscape (http://www.inkscape.org/) -->

<svg
   width="512"
   height="512"
   viewBox="0 0 135.46666 135.46666"
   version="1.1"
   id="svg5"
   inkscape:version="1.1.2 (b8e25be833, 2022-02-05)"
   sodipodi:docname="translate2.svg"
   xmlns:inkscape="http://www.inkscape.org/namespaces/inkscape"
   xmlns:sodipodi="http://sodipodi.sourceforge.net/DTD/sodipodi-0.dtd"
   xmlns="http://www.w3.org/2000/svg"
   xmlns:svg="http://www.w3.org/2000/svg">
  <sodipodi:namedview
     id="namedview7"
     pagecolor="#ffffff"
     bordercolor="#666666"
     borderopacity="1.0"
     inkscape:pageshadow="2"
     inkscape:pageopacity="0.0"
     inkscape:pagecheckerboard="0"
     inkscape:document-units="mm"
     showgrid="false"
     width="512mm"
     units="px"
     inkscape:zoom="0.98520767"
     inkscape:cx="281.6665"
     inkscape:cy="253.75361"
     inkscape:window-width="1920"
     inkscape:window-height="986"
     inkscape:window-x="-11"
     inkscape:window-y="-11"
     inkscape:window-maximized="1"
     inkscape:current-layer="layer1" />
  <defs
     id="defs2" />
  <g
     inkscape:label="Camada 1"
     inkscape:groupmode="layer"
     id="layer1">
    <path
       style="fill:#000000;stroke-width:0.429552"
       d="M 62.853127,135.24923 C 34.421926,132.96087 10.629468,113.6454 2.7471601,86.453323 -1.1271025,73.088063 -0.84213942,59.626024 3.5979218,46.262064 14.518175,13.393654 48.312975,-5.7832887 82.330991,1.5847887 c 8.506337,1.8424152 17.881449,6.0602306 25.306929,11.3854553 8.04674,5.770748 16.23164,15.514727 20.87652,24.853103 12.07942,24.28521 8.16396,54.006889 -9.80053,74.394523 -14.08093,15.98024 -35.213603,24.69323 -55.860783,23.03136 z m 3.512871,-37.721056 c 0.844681,-0.591461 1.923947,-2.614095 4.758513,-8.917833 l 1.110472,-2.469553 h 9.1001 9.100102 l 2.631196,5.562549 c 2.653452,5.609603 3.371363,6.46313 5.436231,6.46313 1.293997,0 3.230838,-1.737333 3.230838,-2.898039 0,-0.434294 -3.300824,-7.64239 -7.335166,-16.017965 -4.034347,-8.375574 -7.732616,-16.057705 -8.218377,-17.071403 -1.516995,-3.165656 -4.745967,-4.034307 -7.229783,-1.944942 -0.929898,0.782221 -2.40044,3.293976 -4.588955,7.838154 -9.691995,20.12421 -12.582085,26.404037 -12.582085,27.339439 0,2.235612 2.662371,3.464057 4.586914,2.116463 z m 9.164771,-18.151833 c 0.0021,-0.177166 1.083692,-2.544721 2.403375,-5.261237 1.319689,-2.716514 2.589838,-5.422288 2.822563,-6.012827 0.386733,-0.981359 0.678902,-0.541788 3.396452,5.109974 1.635328,3.401032 2.973322,6.251758 2.973322,6.334944 0,0.08315 -2.609922,0.151281 -5.799828,0.151281 -3.189905,0 -5.798054,-0.145017 -5.795884,-0.322119 z m -35.148141,8.193913 c 4.331442,-2.522218 8.894493,-6.038461 12.526157,-9.652555 l 3.373781,-3.357464 1.819369,1.06591 c 3.157072,1.849619 5.832314,1.074914 5.818656,-1.68498 -0.008,-1.619114 -0.225823,-1.949767 -2.141507,-3.250944 -0.827014,-0.561721 -1.576861,-1.076558 -1.66633,-1.144071 -0.08947,-0.06749 0.43411,-1.052472 1.163512,-2.188807 2.129101,-3.316919 4.636219,-9.015269 6.002526,-13.642932 l 1.268055,-4.294882 3.470294,-0.214736 c 1.922977,-0.119018 3.708942,-0.45412 4.00553,-0.751604 0.926881,-0.929696 0.657426,-3.555037 -0.457516,-4.457592 -0.891661,-0.721804 -1.819126,-0.803646 -9.107878,-0.803646 H 58.34215 v -2.147433 c 0,-1.574793 -0.229129,-2.376511 -0.859234,-3.006421 -1.027863,-1.027556 -2.8848,-1.111714 -4.200575,-0.190398 -0.78784,0.551668 -0.954828,1.077451 -0.954828,3.00642 v 2.337832 h -8.346348 -8.346348 l -0.890415,1.131637 c -1.06113,1.348611 -1.133206,2.625591 -0.221629,3.926657 0.666993,0.951981 0.705005,0.954548 14.177356,0.954548 7.429717,0 13.508573,0.157012 13.508573,0.348914 0,1.88379 -6.066707,15.971637 -6.877927,15.971637 -0.605961,0 -4.160078,-4.132421 -5.361479,-6.233858 -1.78619,-3.124359 -2.338578,-3.64438 -3.871228,-3.64438 -1.372135,0 -2.600828,0.928146 -2.842819,2.147449 -0.393173,1.981041 2.251079,6.594798 5.945558,10.373998 l 2.374029,2.428458 -1.333946,1.651686 c -2.385936,2.954226 -7.354533,6.884564 -12.371742,9.786514 -4.279537,2.475267 -5.022865,3.99619 -2.960647,6.057786 1.417169,1.416751 2.285855,1.333798 5.474127,-0.522743 z"
       id="path1118" />
  </g>
</svg>
